HIERARCHY
ROOT SpineBase
{
  OFFSET 0.000000 0.000000 0.000000
  CHANNELS 6 Xposition Yposition Zposition Zrotation Xrotation Yrotation
  JOINT SpineMid
  {
    OFFSET 0.000000 24.846717 0.000000
    CHANNELS 3 Zrotation Xrotation Yrotation
    JOINT SpineShoulder
    {
      OFFSET -0.008889 18.655718 -0.994678
      CHANNELS 3 Zrotation Xrotation Yrotation
      JOINT Neck
      {
        OFFSET 0.020931 6.210691 -0.672765
        CHANNELS 3 Zrotation Xrotation Yrotation
        JOINT Head
        {
          OFFSET 1.963995 9.153221 2.538899
          CHANNELS 3 Zrotation Xrotation Yrotation
          End Site
          {
            OFFSET 0 0 0
          }
        }
      }
      JOINT ShoulderLeft
      {
        OFFSET -12.946480 -1.619861 -7.381092
        CHANNELS 3 Zrotation Xrotation Yrotation
        JOINT ElbowLeft
        {
          OFFSET -4.019811 -17.579743 -5.044116
          CHANNELS 3 Zrotation Xrotation Yrotation
          JOINT WristLeft
          {
            OFFSET 10.829066 -16.591338 -14.207751
            CHANNELS 3 Zrotation Xrotation Yrotation
            JOINT HandLeft
            {
              OFFSET 5.529468 0.374209 -4.365002
              CHANNELS 3 Zrotation Xrotation Yrotation
              JOINT HandTipLeft
              {
                OFFSET 5.798213 -2.553765 -6.495933
                CHANNELS 3 Zrotation Xrotation Yrotation
                End Site
                {
                  OFFSET 0 0 0
                }
              }
              JOINT ThumbLeft
              {
                OFFSET -3.231904 -1.793849 -3.599858
                CHANNELS 3 Zrotation Xrotation Yrotation
                End Site
                {
                  OFFSET 0 0 0
                }
              }
            }
          }
        }
      }
      JOINT ShoulderRight
      {
        OFFSET 15.248281 -5.186805 2.505074
        CHANNELS 3 Zrotation Xrotation Yrotation
        JOINT ElbowRight
        {
          OFFSET 3.514103 -22.956819 2.712693
          CHANNELS 3 Zrotation Xrotation Yrotation
          JOINT WristRight
          {
            OFFSET 1.578036 -5.735853 -17.753543
            CHANNELS 3 Zrotation Xrotation Yrotation
            JOINT HandRight
            {
              OFFSET -1.149305 -2.919162 -13.232332
              CHANNELS 3 Zrotation Xrotation Yrotation
              JOINT HandTipRight
              {
                OFFSET 0.481452 -0.122871 -2.527352
                CHANNELS 3 Zrotation Xrotation Yrotation
                End Site
                {
                  OFFSET 0 0 0
                }
              }
              JOINT ThumbRight
              {
                OFFSET 2.132474 4.060527 -0.052268
                CHANNELS 3 Zrotation Xrotation Yrotation
                End Site
                {
                  OFFSET 0 0 0
                }
              }
            }
          }
        }
      }
    }
  }
  JOINT HipLeft
  {
    OFFSET -5.112428 1.517666 -4.962891
    CHANNELS 3 Zrotation Xrotation Yrotation
    JOINT KneeLeft
    {
      OFFSET 6.920013 1.364656 -31.123596
      CHANNELS 3 Zrotation Xrotation Yrotation
      JOINT AnkleLeft
      {
        OFFSET -3.451029 -37.162569 -5.473476
        CHANNELS 3 Zrotation Xrotation Yrotation
        JOINT FootLeft
        {
          OFFSET 2.719383 -3.088942 -10.951378
          CHANNELS 3 Zrotation Xrotation Yrotation
          End Site
          {
            OFFSET 0 0 0
          }
        }
      }
    }
  }
  JOINT HipRight
  {
    OFFSET 4.730120 0.768375 -1.438651
    CHANNELS 3 Zrotation Xrotation Yrotation
    JOINT KneeRight
    {
      OFFSET 19.563302 -9.311359 -27.118769
      CHANNELS 3 Zrotation Xrotation Yrotation
      JOINT AnkleRight
      {
        OFFSET -1.861726 -28.630597 -1.961931
        CHANNELS 3 Zrotation Xrotation Yrotation
        JOINT FootRight
        {
          OFFSET 3.434788 -2.028891 -12.517454
          CHANNELS 3 Zrotation Xrotation Yrotation
          End Site
          {
            OFFSET 0 0 0
          }
        }
      }
    }
  }
}
MOTION
Frames: 13
Frame Time: 0.033333
23.229173 43.509212 369.007091 -0.000000 0.000000 -19.700507 -0.000000 0.000000 19.700507 -0.000000 0.000000 0.000000 -0.000000 0.000000 0.000000 0.000000 0.000000 0.000000 -0.000000 0.000000 0.000000 -0.000000 0.000000 0.000000 -0.000000 0.000000 0.000000 -0.000000 0.000000 0.000000 0.000000 0.000000 0.000000 0.000000 0.000000 0.000000 -0.000000 0.000000 0.000000 -0.000000 0.000000 0.000000 -0.000000 0.000000 0.000000 -0.000000 0.000000 0.000000 0.000000 0.000000 0.000000 0.000000 0.000000 0.000000 -0.000000 0.000000 19.700507 -0.000000 0.000000 0.000000 -0.000000 0.000000 0.000000 0.000000 0.000000 0.000000 -0.000000 0.000000 19.700507 -0.000000 0.000000 0.000000 -0.000000 0.000000 0.000000 0.000000 0.000000 0.000000
23.111678 43.505455 369.582446 -0.182693 -1.122996 -18.439079 -0.181897 1.123125 18.439072 -0.000000 0.000000 0.000000 -0.000000 0.000000 0.000000 0.000000 0.000000 0.000000 -0.000000 0.000000 0.000000 -0.000000 0.000000 0.000000 -1.798050 -1.635178 2.261516 0.855286 0.247792 -2.980071 0.000000 0.000000 0.000000 0.000000 0.000000 0.000000 0.182686 0.828092 0.147119 -0.166654 -3.589373 -1.055070 0.370520 -0.149571 0.177604 -0.430631 2.911869 0.730983 0.000000 0.000000 0.000000 0.000000 0.000000 0.000000 -0.181897 1.123125 18.439072 -0.000000 0.000000 0.000000 0.615919 2.999477 0.402192 0.000000 0.000000 0.000000 -0.181897 1.123125 18.439072 -0.000000 0.000000 0.000000 -1.648770 -4.470149 3.451487 0.000000 0.000000 0.000000
23.032166 43.517383 369.950344 -0.297363 -1.858399 -17.515298 -0.275771 1.861724 17.514956 -0.000000 0.000000 0.000000 -0.000000 0.000000 0.000000 0.000000 0.000000 0.000000 -0.000000 0.000000 0.000000 -0.332757 -1.107433 -0.445631 -3.105596 -2.193412 4.974551 1.592050 0.606603 -5.599858 0.000000 0.000000 0.000000 0.000000 0.000000 0.000000 0.336530 1.562091 0.274628 -0.362719 -6.045615 -1.703076 0.675624 -0.901104 0.306936 -0.985625 4.751391 3.816944 0.000000 0.000000 0.000000 0.000000 0.000000 0.000000 -0.376678 2.788594 16.943384 0.047808 -0.095217 0.466485 0.733382 3.962211 0.749411 0.000000 0.000000 0.000000 -0.275771 1.861724 17.514956 -0.000000 0.000000 0.000000 -3.012219 -8.931470 6.752643 0.000000 0.000000 0.000000
22.990638 43.544996 370.110785 -0.344186 -2.207801 -16.887222 -0.312063 2.212567 16.886616 -0.000000 0.000000 0.000000 -0.934247 0.439901 0.167869 0.000000 0.000000 0.000000 -0.000000 0.000000 0.000000 -1.033420 -2.221131 -0.598407 -3.910075 -2.737456 7.400869 2.260643 1.130235 -7.760913 0.000000 0.000000 0.000000 0.000000 0.000000 0.000000 0.461052 2.197525 0.382694 -0.546086 -7.411001 -1.959472 0.889632 -2.118435 0.492580 -1.331849 6.602259 7.515453 0.000000 0.000000 0.000000 0.000000 0.000000 0.000000 -0.411100 3.194636 16.186699 0.086620 -0.058747 0.580463 0.833444 4.635421 0.863174 0.000000 0.000000 0.000000 -0.312063 2.212567 16.886616 -0.000000 0.000000 0.000000 -4.039298 -13.044208 9.724495 0.000000 0.000000 0.000000
22.987092 43.588294 370.063769 -0.323090 -2.171377 -16.529430 -0.308103 2.173553 16.529151 -0.000000 0.000000 0.000000 -1.203266 0.394915 0.252371 0.000000 0.000000 0.000000 -0.000000 0.000000 0.000000 -2.124820 -3.750518 -0.727831 -4.187676 -2.858675 9.851834 2.927660 1.881532 -9.348019 0.000000 0.000000 0.000000 0.000000 0.000000 0.000000 0.555704 2.730057 0.471379 -0.697287 -7.727570 -1.836900 0.977607 -3.646142 0.849346 -1.493102 7.929863 11.672876 0.000000 0.000000 0.000000 0.000000 0.000000 0.000000 -0.388313 2.942592 15.802011 0.136819 0.032313 0.617099 0.797479 4.583991 0.833266 0.000000 0.000000 0.000000 -0.308103 2.173553 16.529151 -0.000000 0.000000 0.000000 -4.734259 -16.478047 12.197291 0.000000 0.000000 0.000000
23.021530 43.647276 369.809296 -0.233750 -1.747387 -16.431555 -0.270125 1.742136 16.432097 -0.000000 0.000000 0.000000 -1.452161 0.254095 0.350349 0.000000 0.000000 0.000000 -0.000000 0.000000 0.000000 -3.651984 -5.745233 -0.862979 -3.898863 -2.507204 12.383344 3.679497 2.939018 -10.227147 0.000000 0.000000 0.000000 0.000000 0.000000 0.000000 0.619854 3.155429 0.540618 -0.817030 -7.030011 -1.347246 0.890522 -5.299160 1.510835 -1.401371 8.560421 15.685245 0.000000 0.000000 0.000000 0.000000 0.000000 0.000000 -0.270125 1.742136 16.432097 -0.000000 0.000000 0.000000 0.863773 4.254215 0.573163 0.000000 0.000000 0.000000 -0.270125 1.742136 16.432097 -0.000000 0.000000 0.000000 -5.145443 -18.971103 14.027700 0.000000 0.000000 0.000000
23.149052 43.750249 369.145258 0.062191 -0.458706 -16.695473 -0.191353 0.421502 16.696426 -0.000000 0.000000 0.000000 -1.665909 -0.007305 0.462144 0.000000 0.000000 0.000000 -0.000000 0.000000 0.000000 -6.573721 -9.359088 -1.149007 -3.396177 -3.016671 19.274287 4.738329 5.054325 -12.651635 0.000000 0.000000 0.000000 0.000000 0.000000 0.000000 0.662482 4.149038 0.692016 -1.167297 -6.672477 -0.147005 0.840869 -7.777625 2.338374 -1.047145 9.272862 18.194416 0.000000 0.000000 0.000000 0.000000 0.000000 0.000000 -0.191353 0.421502 16.696426 -0.000000 0.000000 0.000000 0.431136 2.222813 0.391963 0.000000 0.000000 0.000000 -0.388026 -0.572345 16.178795 0.082743 1.763003 0.491986 -4.898512 -20.642592 14.739394 0.000000 0.000000 0.000000
23.265502 43.828202 368.457778 0.279393 0.756892 -17.214582 -0.042887 -0.805669 17.212435 -0.000000 0.000000 0.000000 -1.833506 -0.352700 0.577158 0.000000 0.000000 0.000000 -0.689299 -0.873113 0.392497 -9.194315 -12.256078 -1.841139 -1.475860 -2.550675 25.552431 7.440562 8.828779 -10.949876 0.000000 0.000000 0.000000 0.000000 0.000000 0.000000 0.711604 4.405598 0.734061 -1.434296 -4.359091 1.218290 0.703309 -10.888714 2.014742 -0.977040 8.860690 22.393145 0.000000 0.000000 0.000000 0.000000 0.000000 0.000000 0.075673 -2.316093 17.124965 0.317661 0.285330 0.199905 -0.757840 -2.444530 -0.665713 0.000000 0.000000 0.000000 -0.160666 -2.233366 15.918846 0.046497 2.364269 1.262001 -4.915877 -21.455225 15.603909 0.000000 0.000000 0.000000
23.305480 43.896591 367.893703 0.355506 1.653971 -17.761153 0.165976 -1.683577 17.758460 -0.000000 0.000000 0.000000 -2.070830 -0.734783 0.717333 0.000000 0.000000 0.000000 -0.951988 -1.431680 0.589639 -12.671021 -15.700518 -2.457124 2.434846 1.077260 28.202998 10.208586 11.512745 -9.996788 0.000000 0.000000 0.000000 0.000000 0.000000 0.000000 0.656569 3.715759 0.627122 -1.523170 -1.128408 2.435080 -0.757959 -7.776006 6.006652 0.343541 2.371503 21.130362 0.000000 0.000000 0.000000 0.000000 0.000000 0.000000 0.437670 -4.508358 17.960789 0.477851 1.046462 -0.018390 -1.735734 -6.750131 -1.583887 0.000000 0.000000 0.000000 0.144476 -3.521404 15.671377 -0.069471 2.922427 2.062737 -4.789529 -21.464908 15.634201 0.000000 0.000000 0.000000
23.303722 43.919260 367.413368 0.351534 2.339157 -18.256595 0.336218 -1.242382 18.271100 -0.290488 -0.234685 -0.021938 -2.288106 -1.913884 0.819598 0.000000 0.000000 0.000000 -1.239825 -2.715427 0.758810 -14.900913 -17.915878 -3.104741 4.637100 5.695455 22.323743 12.480787 14.197524 -2.823433 0.000000 0.000000 0.000000 0.000000 0.000000 0.000000 0.620175 0.450773 0.272535 -1.557879 6.590499 4.053629 -4.601094 -1.033719 12.792149 1.251598 -9.760503 17.825080 0.000000 0.000000 0.000000 0.000000 0.000000 0.000000 0.854101 -6.521078 18.701077 0.683541 2.027455 -0.202843 -2.420105 -9.505134 -2.147629 0.000000 0.000000 0.000000 0.525295 -4.433215 15.380806 -0.296024 3.294978 2.873740 -4.405986 -19.661253 14.047917 0.000000 0.000000 0.000000
23.260605 43.987178 367.170923 0.253818 2.566069 -19.146896 0.432454 -1.031605 19.167122 -0.402815 -0.310812 -0.035673 -2.464205 -2.581100 0.944134 0.000000 0.000000 0.000000 -1.571873 -3.328415 0.925078 -15.590480 -18.690372 -3.464638 1.177274 6.284992 10.388512 17.614342 19.218222 6.203386 0.000000 0.000000 0.000000 0.000000 0.000000 0.000000 0.847084 -0.623740 0.194460 -1.335181 12.820430 3.958873 -10.251585 2.920607 21.641865 1.496889 -17.063650 16.020180 0.000000 0.000000 0.000000 0.000000 0.000000 0.000000 1.299650 -8.023903 19.779126 0.942814 3.191281 -0.353047 -2.684451 -10.377913 -2.134692 0.000000 0.000000 0.000000 0.820362 -4.811336 15.824674 -0.435619 3.519834 3.347955 -4.439244 -20.579269 14.272692 0.000000 0.000000 0.000000
23.206806 44.078999 367.182078 0.095129 2.365891 -20.215084 0.448437 -0.552252 20.238744 -0.445115 -0.332010 -0.042677 -2.611285 -3.143642 1.050765 0.000000 0.000000 0.000000 -1.782939 -3.403094 0.954068 -13.743280 -17.133488 -3.172458 0.527250 7.621791 2.764169 17.903362 21.935700 10.750239 0.000000 0.000000 0.000000 0.000000 0.000000 0.000000 0.995880 -0.448650 0.275811 -1.140094 15.081477 3.573648 -9.485795 3.706269 16.779262 1.078008 -13.975219 29.112316 0.000000 0.000000 0.000000 0.000000 0.000000 0.000000 1.703005 -8.860240 21.032164 1.217992 4.391936 -0.539775 -2.447890 -9.297423 -1.707616 0.000000 0.000000 0.000000 0.982284 -4.664961 16.798537 -0.474290 3.596953 3.459194 -4.687911 -22.681752 14.883731 0.000000 0.000000 0.000000
23.117529 44.137454 367.468723 -0.149423 1.749670 -21.073131 0.332905 0.352879 21.097660 -0.366132 -0.114592 -0.037339 -2.666040 -4.295716 1.156313 0.000000 0.000000 0.000000 -2.367325 -3.639938 1.010214 -8.536882 -12.358495 -2.569725 -0.283172 6.228302 -1.005626 15.558950 19.085221 8.684625 0.000000 0.000000 0.000000 0.000000 0.000000 0.000000 0.687051 0.710586 0.485995 -0.255387 16.729433 2.562658 -10.626358 7.231329 15.231798 -0.238796 -12.134461 37.189987 0.000000 0.000000 0.000000 0.000000 0.000000 0.000000 1.947499 -8.788172 21.971776 1.435288 5.417886 -0.679357 -1.708649 -6.433528 -1.198588 0.000000 0.000000 0.000000 1.040762 -3.904113 17.809996 -0.565895 3.540746 3.311947 -5.091547 -26.752843 16.814085 0.000000 0.000000 0.000000
